<svg width="112" height="112" viewBox="0 0 112 112" fill="none" xmlns="http://www.w3.org/2000/svg">
<path d="M56 110.688C86.2031 110.688 110.688 86.2031 110.688 56C110.688 25.7969 86.2031 1.3125 56 1.3125C25.7969 1.3125 1.3125 25.7969 1.3125 56C1.3125 86.2031 25.7969 110.688 56 110.688Z" fill="url(#paint0_linear_91_858)"/>
<path d="M55.5626 6.6499V14.6999H56.4376V6.6499H55.5626ZM52.1483 6.8774L51.2768 6.9474L51.6268 11.3224L52.4983 11.2524L52.1483 6.8774ZM59.8518 6.8774L59.5018 11.2524L60.3733 11.3224L60.7233 6.9474L59.8518 6.8774ZM47.8564 7.36215L46.9937 7.51265L48.3937 15.476L49.2564 15.3247L47.8564 7.36215ZM64.1437 7.36215L62.7437 15.3247L63.6064 15.4769L65.0064 7.51265L64.1437 7.36215ZM43.6477 8.28615L42.8033 8.51453L43.9399 12.7154L44.7843 12.487L43.6477 8.28615ZM68.3524 8.28615L67.2158 12.4862L68.0602 12.7154L69.1968 8.5154L68.3524 8.28615ZM39.6122 9.47878L38.7871 9.77278L41.5013 17.3853L42.3247 17.0904L39.6122 9.47878ZM72.3879 9.47878L69.6754 17.0913L70.4988 17.3844L73.2131 9.77278L72.3879 9.47878ZM76.4304 11.0993L74.5054 15.1252L75.2947 15.5014L77.2206 11.4764L76.4304 11.0993ZM35.5723 11.1054L34.7778 11.4694L36.6153 15.4944L37.4098 15.1322L35.5723 11.1054ZM31.7923 13.0829L31.0337 13.5187L35.0587 20.5187L35.8173 20.0829L31.7923 13.0829ZM80.2078 13.0829L76.1828 20.0829L76.9423 20.5187L80.9673 13.5187L80.2078 13.0829ZM28.0937 15.3229L27.3797 15.8278L29.9172 19.4162L30.6321 18.9104L28.0937 15.3229ZM83.9064 15.3229L81.3689 18.9104L82.0829 19.4162L84.6204 15.8278L83.9064 15.3229ZM24.7477 17.9199L24.0783 18.4834L29.2408 24.6084L29.9093 24.0449L24.7477 17.9199ZM87.2524 17.9199L82.0908 24.0449L82.7593 24.6084L87.9218 18.4834L87.2524 17.9199ZM21.4804 20.775L20.8706 21.4024L24.0206 24.4649L24.6296 23.8375L21.4804 20.775ZM18.5667 23.9023L18.0076 24.5743L24.2201 29.7368L24.7801 29.063L18.5667 23.9023ZM93.4334 23.9023L87.22 29.0639L87.7801 29.7377L93.9925 24.5743L93.4334 23.9023ZM15.9111 27.2912L15.4132 28.0113L19.0891 30.5488L19.5869 29.8278L15.9111 27.2912ZM96.0891 27.2912L92.414 29.8278L92.911 30.5488L96.5861 28.0113L96.0891 27.2912ZM13.6063 30.946L13.1706 31.7047L20.1706 35.7297L20.6063 34.971L13.6063 30.946ZM98.3956 30.946L91.3956 34.971L91.8313 35.7297L98.8313 31.7047L98.3956 30.946ZM11.6481 34.691L11.2788 35.4838L15.2163 37.3213L15.5856 36.5277L11.6481 34.691ZM100.354 34.691L96.4163 36.5285L96.7856 37.3204L100.723 35.4829L100.354 34.691ZM9.95318 38.6137L9.64693 39.4335L17.1719 42.2353L17.4782 41.4145L9.95318 38.6137ZM102.047 38.6137L94.5219 41.4145L94.8282 42.2353L102.353 39.4335L102.047 38.6137ZM8.59955 42.7139L8.37555 43.56L12.6631 44.6984L12.8879 43.8523L8.59955 42.7139ZM103.401 42.7139L99.1131 43.8523L99.3362 44.6984L103.624 43.5609L103.401 42.7139ZM7.60205 46.906L7.4498 47.7679L15.4123 49.1688L15.5637 48.306L7.60205 46.906ZM104.398 46.906L96.4355 48.306L96.5887 49.1688L104.551 47.7679L104.398 46.906ZM7.0438 51.1017L6.95805 51.9732L11.3331 52.4107L11.4188 51.5392L7.0438 51.1017ZM104.958 51.1017L100.583 51.5392L100.669 52.4107L105.044 51.9732L104.958 51.1017ZM6.82593 55.4749V56.3499H14.8751V55.4749H6.82593ZM97.1251 55.4749V56.3499H105.175V55.4749H97.1251ZM11.3322 59.3275L6.95718 59.765L7.04293 60.6348L11.4179 60.1973L11.3322 59.3275ZM100.668 59.3275L100.582 60.1973L104.957 60.6348L105.043 59.765L100.668 59.3275ZM15.4114 62.5694L7.44893 63.9694L7.60205 64.8304L15.5646 63.4304L15.4114 62.5694ZM96.5887 62.5694L96.4364 63.4304L104.399 64.8304L104.55 63.9685L96.5887 62.5694ZM12.6639 67.0406L8.37643 68.1764L8.59955 69.0225L12.8871 67.8859L12.6639 67.0406ZM99.3362 67.0406L99.1122 67.8859L103.4 69.0225L103.625 68.1764L99.3362 67.0406ZM17.1719 69.5029L9.64693 72.302L9.95318 73.1219L17.4782 70.3228L17.1719 69.5029ZM94.8282 69.5029L94.5219 70.3228L102.047 73.1228L102.353 72.302L94.8282 69.5029ZM15.2154 74.416L11.2779 76.2535L11.6472 77.0463L15.5847 75.2088L15.2154 74.416ZM96.7847 74.416L96.4154 75.2088L100.353 77.0463L100.722 76.2527L96.7847 74.416ZM20.1697 76.096L13.1697 80.121L13.6054 80.8797L20.6054 76.8547L20.1697 76.096ZM91.8304 76.096L91.3947 76.8547L98.3947 80.8797L98.8304 80.1202L91.8304 76.096ZM19.0891 81.1903L15.4141 83.7278L15.9111 84.4479L19.5861 81.9104L19.0891 81.1903ZM92.911 81.1903L92.4132 81.9095L96.0891 84.447L96.5869 83.7278L92.911 81.1903ZM24.2201 82.0005L18.0076 87.163L18.5667 87.8368L24.7801 82.6743L24.2201 82.0005ZM87.7801 82.0005L87.22 82.6743L93.4334 87.8368L93.9925 87.163L87.7801 82.0005ZM29.2408 87.1307L24.0783 93.2557L24.7477 93.82L29.9093 87.695L29.2408 87.1307ZM82.7593 87.1307L82.0908 87.695L87.2524 93.82L87.9218 93.2557L82.7593 87.1307ZM87.9804 87.2742L87.3705 87.9015L90.5206 90.964L91.1296 90.3367L87.9804 87.2742ZM35.0604 91.3044L31.0354 98.2169L31.7906 98.6579L35.8156 91.7454L35.0604 91.3044ZM76.9406 91.3044L76.1846 91.7454L80.2095 98.6579L80.9647 98.2169L76.9406 91.3044ZM29.9181 92.3229L27.3797 95.9104L28.0937 96.4153L30.6312 92.8269L29.9181 92.3229ZM82.0829 92.3229L81.368 92.8269L83.9055 96.4153L84.6204 95.9095L82.0829 92.3229ZM41.5004 94.3529L38.7879 101.965L39.6122 102.259L42.3247 94.6469L41.5004 94.3529ZM70.4988 94.3529L69.6754 94.6469L72.3879 102.259L73.2131 101.965L70.4988 94.3529ZM48.3937 96.2622L46.9937 104.225L47.8564 104.376L49.2564 96.4135L48.3937 96.2622ZM63.6064 96.2622L62.7437 96.4144L64.1437 104.377L65.0064 104.224L63.6064 96.2622ZM36.7072 96.3199L34.7813 100.257L35.5671 100.642L37.4938 96.7049L36.7072 96.3199ZM75.2929 96.3199L74.5063 96.7049L76.433 100.642L77.2188 100.257L75.2929 96.3199ZM55.5626 97.0374V105.087H56.4376V97.0374H55.5626ZM43.9399 99.0254L42.8016 103.313L43.6477 103.537L44.7852 99.2494L43.9399 99.0254ZM68.0602 99.0254L67.2141 99.2494L68.3524 103.537L69.1986 103.313L68.0602 99.0254ZM51.6268 100.502L51.2768 104.877L52.1483 104.947L52.4983 100.572L51.6268 100.502ZM60.3733 100.502L59.5018 100.572L59.8518 104.947L60.7233 104.877L60.3733 100.502Z" fill="white"/>
<path d="M93.3625 18.375L51.3625 51.3625L55.9125 55.9125L93.3625 18.375Z" fill="#FF0000"/>
<path d="M55.9126 55.9125L61.1626 61.1625L93.3626 18.375L55.9126 55.9125Z" fill="#D01414"/>
<path d="M51.3625 51.3625L18.375 93.3625L55.9125 55.9125L51.3625 51.3625Z" fill="white"/>
<path d="M18.375 93.3626L61.1625 61.1626L55.9125 55.9126L18.375 93.3626Z" fill="#ACACAC"/>
<defs>
<linearGradient id="paint0_linear_91_858" x1="56.0175" y1="1.323" x2="56.0175" y2="110.691" gradientUnits="userSpaceOnUse">
<stop stop-color="#19D7FF"/>
<stop offset="1" stop-color="#1E64F0"/>
</linearGradient>
</defs>
</svg>
