<svg width="1280" height="511" viewBox="0 0 1280 511" fill="none" xmlns="http://www.w3.org/2000/svg">
<g clip-path="url(#clip0_47_827)">
<path d="M-23.9015 84.1662C10.3196 113.363 13.0163 180.903 15.1803 235.154C15.8654 252.39 16.5177 268.669 18.1489 281.565C18.6926 285.872 19.2689 290.982 19.9323 296.898C26.0979 351.497 38.9186 465.111 87.3958 488.371C103.283 495.994 121.889 493.199 142.691 480.041C162.623 467.438 180.968 448.995 200.389 429.476C229.467 400.246 259.534 370.016 295.68 360.469C330.314 351.323 368.907 359.229 406.216 366.884C424.615 370.658 441.992 374.224 458.749 375.801C564.153 385.773 644.589 388.415 719.555 384.392C792.271 380.488 858.103 363.035 920.815 331.021C976.067 302.814 1021.65 267.418 1065.72 233.197C1134.37 179.903 1196.26 131.86 1280 120.345L1280 120.084C1255.3 123.52 1231.45 130.229 1207.35 140.495C1156.5 162.178 1112.29 196.508 1065.49 232.849C979.535 299.595 882.124 375.236 719.555 383.968C644.611 387.991 564.196 385.338 458.803 375.377C442.068 373.789 424.702 370.234 406.314 366.46C368.939 358.794 330.303 350.878 295.571 360.055C259.306 369.636 229.195 399.898 200.085 429.172C180.674 448.68 162.351 467.112 142.463 479.682C121.802 492.742 103.337 495.537 87.5806 487.979C39.3209 464.828 26.5221 351.378 20.3672 296.855C19.704 290.939 19.1167 285.817 18.5839 281.511C16.9636 268.636 16.3112 252.368 15.6261 235.143C13.4622 180.794 10.7544 113.168 -23.608 83.8399C-31.8615 76.7935 -41.0827 72.4438 -50.9891 70.3016L-50.9891 70.7583C-41.1915 72.8896 -32.068 77.1958 -23.9015 84.1662Z" fill="url(#paint0_linear_47_827)"/>
<path d="M-18.6058 98.5094C15.1151 125.064 20.3129 187.112 24.4887 236.96C25.9784 254.761 27.392 271.572 29.9148 284.73C31.0567 290.678 32.2963 298.366 33.7208 307.261C42.2788 360.632 58.2095 459.967 104.566 481.825C120.562 489.371 139.081 487.077 159.611 475.028C179.478 463.371 197.867 446.396 217.331 428.421C224.16 422.114 231.218 415.601 238.275 409.402C258.686 391.46 283.403 372.213 311.926 365.547C345.832 357.63 383.565 365.482 420.048 373.094L423.843 373.887C441.666 377.596 457.673 380.782 473.027 382.326C543.84 389.437 637.151 396.658 730.832 389.361C768.163 386.458 802.895 379.923 837.04 369.396C866.977 360.164 895.685 348.061 924.827 332.392C980.645 302.39 1026.37 264.917 1070.6 228.684C1086.74 215.45 1101.99 202.956 1117.69 190.82C1169.54 150.814 1220.07 121.008 1280 109.938L1280 109.71C1266.55 112.2 1253.33 115.636 1240.28 120.062C1201.27 133.285 1163.4 155.012 1117.45 190.505C1101.74 202.641 1086.49 215.146 1070.35 228.369C1026.14 264.591 980.438 302.042 924.653 332.033C863.421 364.949 800.014 383.565 730.821 388.948C637.173 396.245 543.894 389.013 473.092 381.913C457.76 380.368 441.764 377.182 423.952 373.485L420.157 372.691C383.619 365.079 345.842 357.206 311.85 365.155C283.24 371.832 258.468 391.123 238.014 409.098C230.946 415.296 223.888 421.821 217.059 428.117C197.606 446.081 179.239 463.045 159.415 474.669C139.016 486.642 120.627 488.925 104.773 481.444C58.6117 459.685 42.7136 360.49 34.1665 307.196C32.7421 298.29 31.5023 290.602 30.3606 284.643C27.8378 271.507 26.4241 254.706 24.9343 236.916C20.7478 186.982 15.5501 124.836 -18.323 98.1614C-27.6639 90.7778 -38.6034 86.3411 -50.9891 84.8622L-50.9891 85.3624C-38.6795 86.8196 -27.8706 91.191 -18.6058 98.5094Z" fill="url(#paint1_linear_47_827)"/>
<path d="M-13.31 112.852C1.51151 123.574 12.4944 141.473 20.2586 167.593C27.0441 190.396 30.4911 216.494 33.5359 239.526C35.9282 257.61 38.1792 274.682 41.7024 287.905C43.5836 294.952 45.6062 304.597 47.9442 315.765C58.8401 367.689 77.0761 454.585 121.758 475.311C137.852 482.771 156.295 481.009 176.564 470.048C196.355 459.348 215.613 443.145 234.252 427.464C241.059 421.734 248.105 415.807 255.13 410.185C275.486 393.831 300.095 376.356 328.204 370.669C361.36 363.959 398.18 371.756 433.793 379.303L438.708 380.347C456.27 384.055 472.048 387.252 487.348 388.872C562.152 396.821 650.929 403.694 742.152 394.353C779.19 390.558 813.748 382.978 847.806 371.158C877.264 360.936 905.776 347.713 934.973 330.728C988.594 299.541 1032.72 261.416 1075.39 224.541C1092.31 209.926 1108.29 196.127 1124.84 182.719C1168.87 147.074 1217.85 114.266 1280 100.097L1280 99.7926C1269.19 102.272 1258.51 105.371 1247.96 109.101C1208.18 123.161 1168.96 146.454 1124.54 182.393C1107.99 195.801 1092.01 209.611 1075.1 224.226C1032.44 261.079 988.322 299.193 934.745 330.358C872.36 366.656 811.149 386.849 742.109 393.918C650.929 403.259 562.184 396.386 487.403 388.437C472.124 386.817 456.357 383.62 438.806 379.912L433.891 378.868C398.234 371.321 361.36 363.513 328.128 370.234C299.921 375.932 275.269 393.45 254.869 409.837C247.844 415.47 240.798 421.397 233.991 427.127C214.515 443.515 196.127 458.989 176.379 469.656C156.24 480.541 137.928 482.314 121.965 474.909C77.4785 454.28 59.2752 367.515 48.4009 315.667C46.0521 304.488 44.0296 294.843 42.1483 287.775C38.6359 274.584 36.385 257.523 33.9927 239.45C30.9479 216.407 27.4898 190.287 20.7043 167.452C12.9075 141.245 1.87039 123.259 -13.0273 112.483C-23.7601 104.664 -36.4829 100.499 -50.9782 99.9882L-50.9782 100.51C-36.5482 101.01 -23.9559 105.11 -13.31 112.852Z" fill="url(#paint2_linear_47_827)"/>
<path d="M-8.00339 127.195C24.8583 148.998 34.1665 198.845 42.3657 242.821C45.7367 260.894 48.9229 277.977 53.49 291.059C56.2085 298.855 59.1445 309.991 62.5265 322.887C75.7387 373.137 95.7144 449.082 138.961 468.786C155.153 476.17 173.498 474.909 193.495 465.035C213.177 455.324 232.414 440.709 251.03 426.573C257.859 421.386 264.917 416.025 271.952 410.936C292.254 396.179 316.754 380.466 344.461 375.758C376.823 370.255 412.708 377.976 447.407 385.457C449.452 385.903 451.496 386.338 453.54 386.773C470.841 390.481 486.391 393.678 501.637 395.397C575.875 403.737 663.847 410.729 753.429 399.322C821.555 390.645 882.451 368.32 945.053 329.053C996.456 296.822 1038.95 258.132 1080.06 220.724C1097.76 204.609 1114.48 189.385 1131.92 174.607C1172.04 140.636 1219.33 107.187 1280.01 90.6909L1280.01 90.332C1271.82 92.583 1263.71 95.171 1255.66 98.1288C1214.6 113.211 1175.19 137.406 1131.64 174.27C1114.2 189.048 1097.48 204.283 1079.77 220.398C1038.69 257.795 996.206 296.474 944.836 328.683C882.288 367.907 821.447 390.22 753.385 398.887C663.847 410.294 575.908 403.302 501.691 394.962C486.467 393.254 470.928 390.046 453.638 386.349C451.594 385.914 449.55 385.468 447.505 385.033C412.762 377.552 376.834 369.81 344.396 375.334C316.602 380.053 292.059 395.81 271.713 410.588C264.677 415.677 257.62 421.038 250.791 426.225C232.196 440.35 212.971 454.954 193.321 464.643C173.454 474.452 155.229 475.702 139.168 468.384C96.106 448.756 76.1627 372.941 62.9723 322.768C59.5796 309.871 56.6544 298.725 53.9249 290.906C49.3687 277.846 46.1825 260.785 42.8115 242.723C34.5907 198.661 25.2715 148.715 -7.75339 126.815C-19.889 118.768 -34.3951 115.027 -50.9891 115.647L-50.9891 115.962C-34.5039 115.353 -20.226 119.094 -8.00339 127.195Z" fill="url(#paint3_linear_47_827)"/>
<path d="M-2.70774 141.549C29.8279 161.145 41.0934 206.631 51.0324 246.757C55.4473 264.591 59.6231 281.435 65.2777 294.234C68.9531 302.553 72.8895 314.797 77.4349 328.966C84.8729 352.128 94.1268 380.945 106.697 406.086C121.454 435.609 137.656 453.997 156.229 462.305C172.508 469.58 190.744 468.819 210.437 460.044C229.978 451.333 249.16 438.339 267.701 425.768C274.584 421.103 281.706 416.275 288.786 411.708C309.055 398.55 333.446 384.598 360.718 380.869C392.253 376.541 427.149 384.185 460.891 391.591C463.392 392.134 465.893 392.689 468.384 393.233C484.782 396.799 500.767 400.149 515.936 401.943C589.489 410.664 676.581 417.765 764.705 404.313C831.984 394.048 892.499 369.603 955.145 327.4C1004.35 294.256 1045.2 255.087 1084.71 217.212C1103.2 199.487 1120.66 182.752 1138.99 166.506C1185.84 125.097 1231.86 97.1828 1280 81.774L1280 81.3826C1274.41 83.1551 1268.85 85.0798 1263.33 87.1785C1221.63 103.077 1180.86 128.914 1138.71 166.179C1120.37 182.426 1102.9 199.172 1084.41 216.897C1044.91 254.761 1004.07 293.908 954.895 327.031C892.292 369.201 831.842 393.613 764.629 403.878C676.548 417.319 589.5 410.229 515.958 401.508C500.81 399.714 484.847 396.364 468.449 392.808C465.959 392.265 463.458 391.721 460.956 391.166C427.17 383.761 392.243 376.095 360.631 380.444C333.272 384.185 308.827 398.169 288.514 411.36C281.435 415.927 274.312 420.755 267.418 425.431C248.888 437.991 229.728 450.974 210.22 459.663C190.646 468.384 172.53 469.145 156.371 461.925C137.895 453.66 121.758 435.337 107.056 405.912C94.5075 380.803 85.2534 351.998 77.8264 328.857C73.2702 314.666 69.3338 302.411 65.6474 294.082C60.0037 281.315 55.8388 264.493 51.4238 246.67C41.4632 206.457 30.1867 160.884 -2.51206 141.191C-16.8768 132.535 -33.373 129.99 -51.0218 131.763L-51.0218 132.198C-33.4273 130.403 -17.0073 132.937 -2.70774 141.549Z" fill="url(#paint4_linear_47_827)"/>
<path d="M2.58804 155.892C34.8734 173.4 47.9986 214.776 59.5795 251.281C65.0927 268.647 70.2907 285.045 77.0653 297.398C81.8064 306.054 86.8411 319.103 92.6697 334.207C109.568 378.009 132.708 437.991 173.552 455.857C189.896 463.001 208.001 462.729 227.357 455.041C246.713 447.353 265.743 436.012 284.142 425.04C291.156 420.864 298.398 416.536 305.586 412.469C326.834 400.333 350.192 388.72 376.953 385.958C407.597 382.782 441.427 390.34 474.158 397.647C477.17 398.322 480.182 398.996 483.194 399.659C499.332 403.226 515.066 406.575 530.203 408.467C603.017 417.558 689.162 424.768 775.982 409.283C842.532 397.419 902.666 370.864 965.247 325.726C1012.29 291.787 1051.5 252.227 1089.42 213.961C1107.82 195.388 1126.86 176.184 1146.1 158.394C1189.54 118.333 1233.64 90.2015 1280 73.39L1280 72.8463C1277 73.9337 1274.01 75.0429 1271.02 76.2173C1228.14 93.1376 1187.19 119.91 1145.8 158.067C1126.55 175.858 1107.51 195.072 1089.1 213.645C1051.2 251.901 1011.99 291.461 964.986 325.367C902.459 370.462 842.379 396.995 775.905 408.848C689.14 424.322 603.039 417.123 530.258 408.032C515.154 406.14 499.419 402.791 483.292 399.235C480.28 398.572 477.268 397.898 474.256 397.223C441.503 389.905 407.63 382.347 376.921 385.523C350.073 388.285 326.671 399.92 305.38 412.088C298.192 416.166 290.939 420.483 283.925 424.67C265.537 435.631 246.518 446.962 227.194 454.639C207.947 462.284 189.95 462.555 173.715 455.455C133.035 437.664 109.927 377.78 93.0612 334.044C87.2217 318.918 82.187 305.858 77.435 297.181C70.6821 284.86 65.4843 268.484 59.982 251.139C48.3792 214.559 35.2213 173.095 2.78372 155.501C-12.1466 147.4 -30.2412 144.931 -51.0108 148.128L-51.0108 148.487C-30.2086 145.257 -12.451 147.726 2.58804 155.892Z" fill="url(#paint5_linear_47_827)"/>
<path d="M7.89468 170.235C39.9953 185.753 54.9037 223.258 68.0615 256.348C74.6947 273.04 80.9691 288.797 88.8529 300.574C94.7794 309.425 101.01 323.029 108.231 338.775C120.921 366.449 136.71 400.888 158.328 424.898C170.214 438.099 182.425 446.723 195.67 451.268C210.731 456.444 227.096 456.031 244.299 450.05C263.623 443.33 282.642 433.543 301.052 424.072C308.044 420.472 315.275 416.753 322.43 413.241C343.787 402.78 367.134 392.852 393.232 391.069C422.93 389.013 455.65 396.462 487.283 403.672C490.872 404.487 494.471 405.303 498.048 406.108C513.925 409.663 529.42 413.024 544.503 415.003C616.512 424.452 701.668 431.76 787.28 414.263C823.458 406.869 857.288 395.07 890.726 378.215C918.629 364.144 946.304 346.43 975.349 324.062C1020.29 289.449 1057.87 249.53 1094.23 210.927C1113.32 190.646 1133.06 169.681 1153.21 150.281C1193.41 111.656 1235.49 83.4595 1280.01 65.4627L1280.01 64.745C1279.58 64.919 1279.15 65.0821 1278.72 65.2561C1234.71 83.1985 1193.55 110.906 1152.9 149.966C1132.75 169.376 1113.01 190.342 1093.91 210.622C1057.57 249.215 1020 289.112 975.088 323.703C912.746 371.723 853.036 400.366 787.193 413.828C701.646 431.325 616.534 424.017 544.557 414.568C529.486 412.589 514.001 409.239 498.135 405.683C494.558 404.879 490.959 404.063 487.37 403.248C455.704 396.038 422.962 388.578 393.189 390.634C367.025 392.428 343.624 402.367 322.235 412.85C315.079 416.351 307.848 420.081 300.845 423.68C282.457 433.141 263.438 442.928 244.147 449.637C211.883 460.859 183.915 452.66 158.644 424.605C137.069 400.638 121.291 366.232 108.622 338.59C101.391 322.822 95.1492 309.197 89.2009 300.323C81.339 288.59 75.0862 272.844 68.453 256.185C55.2626 223.019 40.3106 185.438 8.06863 169.844C-7.05735 162.526 -25.239 160.536 -45.9542 163.928C-47.618 164.2 -49.3036 164.516 -51.0108 164.864L-51.0108 165.244C-28.0663 160.601 -8.56882 162.276 7.89468 170.235Z" fill="url(#paint6_linear_47_827)"/>
<path d="M13.1903 184.579C45.1713 198.193 61.8306 232.033 76.5216 261.894C84.3075 277.716 91.6583 292.657 100.64 303.738C107.872 312.666 115.418 326.606 124.15 342.754C152.282 394.755 190.809 465.981 261.23 445.048C280.195 439.415 298.888 431.314 316.961 423.485C324.257 420.331 331.793 417.058 339.242 414.002C360.61 405.238 383.902 397.006 409.467 396.158C438.121 395.19 469.634 402.519 500.104 409.598C504.366 410.588 508.618 411.577 512.87 412.545C527.854 415.949 543.731 419.461 558.781 421.527C629.941 431.336 714.086 438.741 798.546 419.222C834.561 410.903 868.216 398.061 901.448 379.955C929.047 364.927 956.515 346.093 985.418 322.365C1028.33 287.155 1064.31 246.942 1099.12 208.056C1118.84 186.014 1139.26 163.211 1160.28 142.147C1197.94 104.523 1237.69 76.3586 1280 57.4702L1280 57.0787C1237.36 76.0324 1198.03 103.827 1159.98 141.865C1138.95 162.939 1118.55 185.742 1098.81 207.795C1064.02 246.67 1028.05 286.861 985.157 322.05C946.108 354.096 884.267 398.996 798.459 418.82C714.064 438.317 629.974 430.922 558.846 421.114C543.807 419.037 527.941 415.546 512.968 412.132C508.716 411.164 504.464 410.175 500.201 409.185C469.71 402.095 438.186 394.766 409.456 395.734C383.826 396.582 360.479 404.824 339.079 413.611C331.63 416.666 324.083 419.94 316.787 423.093C298.714 430.922 280.043 439.013 261.1 444.635C191.016 465.47 152.597 394.418 124.531 342.548C115.788 326.378 108.231 312.426 100.978 303.466C92.0281 292.429 84.688 277.498 76.913 261.709C62.1894 231.783 45.4866 197.856 13.3643 184.176C-1.91404 177.673 -20.0956 176.162 -40.6695 179.696C-44.0296 180.272 -47.4659 180.99 -50.9891 181.838L-50.9891 182.23C-25.935 176.151 -4.70859 176.956 13.1903 184.579Z" fill="url(#paint7_linear_47_827)"/>
<path d="M18.497 198.922C50.4453 210.709 68.8117 241.081 85.0252 267.875C93.9636 282.653 102.402 296.615 112.439 306.902C121.127 315.808 130.088 329.912 140.473 346.234C155.783 370.31 173.128 397.593 195.322 417.167C221.116 439.926 248.225 447.408 278.172 440.046C296.572 435.522 314.721 429.139 332.271 422.973C340.068 420.233 348.137 417.395 356.086 414.774C380.651 406.673 401.834 401.269 425.235 401.269C425.409 401.269 425.583 401.269 425.746 401.269C453.29 401.345 483.455 408.511 512.631 415.448C517.578 416.623 522.689 417.841 527.724 419.004C542.437 422.408 558.063 425.909 573.091 428.084C643.382 438.241 726.471 445.733 809.855 424.224C845.718 414.97 879.199 401.084 912.224 381.749C939.551 365.753 966.802 345.788 995.542 320.723C1036.51 284.991 1070.93 244.528 1104.23 205.381C1124.53 181.523 1145.53 156.839 1167.39 134.057C1202.06 98.02 1239.67 70.1277 1280 50.4563L1280 49.8474C1239.71 69.5188 1201.78 97.6938 1167.07 133.763C1145.2 156.556 1124.21 181.229 1103.89 205.098C1070.61 244.224 1036.18 284.676 995.249 320.386C932.722 374.931 875.502 406.825 809.735 423.789C726.428 445.276 643.393 437.795 573.145 427.638C558.139 425.464 542.524 421.962 527.811 418.569C522.787 417.406 517.665 416.188 512.728 415.014C483.531 408.076 453.334 400.899 425.735 400.823C425.561 400.823 425.387 400.823 425.224 400.823C401.757 400.823 380.542 406.227 355.945 414.35C347.985 416.971 339.927 419.809 332.119 422.549C314.579 428.715 296.452 435.098 278.064 439.611C248.257 446.94 221.29 439.48 195.605 416.829C173.454 397.289 156.121 370.038 140.831 345.984C130.436 329.64 121.464 315.515 112.743 306.576C102.739 296.322 94.3118 282.381 85.384 267.625C69.1381 240.765 50.7389 210.329 18.6383 198.487C-2.22923 190.788 -26.109 192.158 -51 198.998L-51 199.444C-26.1416 192.625 -2.31626 191.244 18.497 198.922Z" fill="url(#paint8_linear_47_827)"/>
<path d="M23.7926 213.265C55.8063 223.28 75.01 249.182 93.5831 274.214C103.663 287.796 113.178 300.639 124.227 310.067C134.524 318.864 145.04 332.957 157.208 349.279C173.356 370.93 191.668 395.473 214.015 413.056C239.874 433.413 266.396 440.601 295.093 435.044C312.589 431.662 329.825 426.997 346.506 422.473C355.151 420.135 364.089 417.71 372.887 415.525C392.895 410.544 416.394 405.314 441.981 406.358C468.275 407.412 496.972 414.394 524.734 421.147C530.573 422.571 536.608 424.039 542.546 425.431C556.356 428.672 572.352 432.325 587.369 434.598C656.757 445.102 738.792 452.682 821.12 429.183C856.842 418.983 890.161 404.042 922.957 383.5C950.045 366.536 977.089 345.441 1005.62 319.038C1044.73 282.849 1077.65 242.147 1109.49 202.782C1130.3 177.065 1151.82 150.466 1174.48 125.945C1206.76 91.1041 1241.99 63.5598 1280 43.3556L1280 43.0076C1241.77 63.2988 1206.25 91.028 1174.16 125.651C1151.49 150.184 1129.97 176.782 1109.17 202.51C1077.34 241.864 1044.42 282.555 1005.34 318.723C943.281 376.16 886.431 410.098 821.012 428.769C738.759 452.247 656.779 444.678 587.445 434.174C572.45 431.901 556.464 428.247 542.654 425.007C536.717 423.615 530.682 422.147 524.842 420.723C497.07 413.97 468.34 406.978 442.014 405.923C416.362 404.879 392.83 410.109 372.789 415.101C363.981 417.297 355.042 419.711 346.397 422.049C329.727 426.562 312.491 431.227 295.016 434.609C230.707 447.06 190.157 392.689 157.567 348.996C145.377 332.652 134.851 318.538 124.509 309.719C113.505 300.323 104.001 287.503 93.9312 273.943C75.3146 248.845 56.0673 222.899 23.9231 212.83C1.381 205.772 -24.3691 208.339 -51 216.429L-51 216.886C-24.4017 208.795 1.30483 206.218 23.7926 213.265Z" fill="url(#paint9_linear_47_827)"/>
<path d="M29.0993 227.597C61.276 235.905 82.1326 258.762 102.293 280.88C113.472 293.136 124.031 304.717 136.014 313.22C148.106 321.8 160.905 336.426 174.454 351.911C208.284 390.568 250.4 438.676 312.013 430.031C328.009 427.791 343.776 424.789 359.033 421.886C369.091 419.972 379.487 417.993 389.709 416.286C410.75 412.763 433.38 409.489 458.238 411.458C483.107 413.404 508.955 419.853 536.315 426.692C543.22 428.411 550.353 430.194 557.378 431.879C570.916 435.109 586.619 438.752 601.658 441.144C647.003 448.332 683.856 451.54 717.642 451.301C759.105 450.985 796.643 445.385 832.408 434.174C868.01 423.017 901.143 407.032 933.723 385.273C960.614 367.319 987.441 345.103 1015.74 317.374C1053.09 280.761 1084.56 239.83 1115.01 200.259C1136.23 172.661 1158.18 144.127 1181.59 117.844C1211.11 84.7645 1244.13 57.8074 1280 37.2334L1280 36.6353C1243.96 57.318 1210.84 84.4165 1181.25 117.55C1157.83 143.844 1135.87 172.389 1114.65 199.987C1084.22 239.559 1052.75 280.467 1015.42 317.059C953.916 377.345 897.435 413.339 832.277 433.75C751.047 459.206 670.143 451.551 601.723 440.709C586.706 438.328 571.014 434.685 557.476 431.455C550.44 429.781 543.307 427.997 536.412 426.268C509.031 419.428 483.172 412.969 458.271 411.023C433.358 409.054 410.707 412.339 389.633 415.862C379.411 417.569 369.004 419.548 358.946 421.473C343.7 424.376 327.933 427.378 311.948 429.618C250.552 438.219 208.534 390.21 174.77 351.639C161.199 336.132 148.378 321.485 136.253 312.872C124.303 304.39 113.766 292.831 102.598 280.587C82.3936 258.425 61.4934 235.513 29.1862 227.173C6.77456 221.388 -19.6606 223.573 -51.0218 233.871L-51.0218 234.328C-19.6715 224.03 6.7311 221.834 29.0993 227.597Z" fill="url(#paint10_linear_47_827)"/>
<path d="M34.395 241.94C66.8761 248.573 89.4291 268.538 111.243 287.84C123.444 298.638 134.97 308.849 147.802 316.385C161.906 324.671 176.673 339.025 192.31 354.227C209.817 371.245 229.663 390.536 252.02 404.52C277.661 420.559 302.813 427.28 328.944 425.04C342.319 423.898 355.553 422.408 368.341 420.983C380.868 419.581 393.83 418.134 406.52 417.047C428.649 415.166 450.496 413.72 474.484 416.558C497.711 419.287 521.732 425.464 547.156 431.999C555.355 434.109 563.826 436.283 572.199 438.317C588.674 442.308 602.419 445.429 615.935 447.669C660.715 455.085 697.111 458.325 730.484 457.88C771.349 457.336 808.376 451.203 843.673 439.133C879.178 427.019 912.148 409.968 944.477 387.034C971.195 368.081 997.804 344.745 1025.83 315.7C1061.53 278.695 1091.6 237.558 1120.7 197.769C1142.27 168.278 1164.57 137.776 1188.68 109.721C1215.95 78.0659 1246.56 51.7613 1280 31.046L1280 30.6219C1246.28 51.4677 1215.56 77.8485 1188.34 109.438C1164.22 137.504 1141.92 168.006 1120.35 197.508C1091.26 237.286 1061.19 278.412 1025.51 315.395C964.638 378.498 908.527 416.525 843.554 438.73C763.302 466.144 683.497 458.423 616.022 447.245C602.517 445.005 588.783 441.895 572.319 437.904C563.946 435.87 555.475 433.695 547.287 431.586C521.841 425.04 497.809 418.863 474.549 416.134C450.517 413.295 428.649 414.742 406.499 416.623C393.798 417.699 380.846 419.157 368.308 420.559C355.52 421.995 342.297 423.474 328.922 424.615C270.517 429.618 229.141 389.405 192.636 353.922C176.977 338.709 162.188 324.334 148.041 316.015C135.242 308.501 123.737 298.312 111.547 287.514C89.6902 268.168 67.0936 248.171 34.4928 241.516C10.5261 236.622 -17.6272 239.885 -50.9891 251.487L-50.9891 251.944C-17.6489 240.331 10.4827 237.057 34.395 241.94Z" fill="url(#paint11_linear_47_827)"/>
<path d="M39.7016 256.283C72.683 261.263 97.0412 278.445 120.605 295.06C133.698 304.293 146.073 313.014 159.611 319.538C175.999 327.444 192.995 341.428 210.981 356.249C248.225 386.926 290.406 421.669 345.886 420.037C354.498 419.776 363.089 419.461 371.386 419.146C389.263 418.472 406.151 417.841 423.343 417.808C446.69 417.765 467.873 418.026 490.752 421.658C512.022 425.018 533.89 430.825 557.052 436.979C566.86 439.589 576.995 442.275 587.054 444.754C600.994 448.191 615.881 451.714 630.246 454.193C674.449 461.838 710.389 465.1 743.359 464.459C783.615 463.676 820.131 457.021 854.983 444.102C890.356 430.999 923.153 412.893 955.243 388.774C981.819 368.798 1008.21 344.342 1035.92 314.014C1070.06 276.64 1098.81 235.274 1126.63 195.268C1148.46 163.874 1171.02 131.415 1195.77 101.598C1220.83 71.4762 1249.06 45.9871 1280 25.3479L1280 25.0434C1248.69 45.8348 1220.37 71.3674 1195.43 101.337C1170.67 131.175 1148.1 163.646 1126.27 195.04C1098.47 235.035 1069.73 276.379 1035.6 313.742C975.436 379.596 919.684 419.689 854.83 443.721C775.558 473.093 696.85 465.296 630.311 453.791C615.957 451.312 601.081 447.788 587.151 444.352C577.104 441.873 566.969 439.176 557.16 436.577C533.988 430.422 512.109 424.605 490.817 421.244C467.916 417.612 446.701 417.362 423.343 417.395C406.14 417.428 389.241 418.058 371.364 418.733C363.067 419.048 354.477 419.363 345.864 419.624C290.591 421.288 248.421 386.567 211.242 355.934C193.234 341.102 176.216 327.085 159.785 319.168C146.279 312.655 133.926 303.945 120.845 294.723C97.2368 278.075 72.8351 260.872 39.7559 255.87C14.1798 252.009 -15.6806 256.37 -51.0108 269.18L-51.0108 269.636C-15.6806 256.794 14.1581 252.423 39.7016 256.283Z" fill="url(#paint12_linear_47_827)"/>
<path d="M44.9973 270.626C78.7616 273.964 105.142 288.481 130.653 302.531C144.409 310.099 157.393 317.244 171.399 322.713C190.45 330.151 210.013 343.722 230.728 358.098C268.223 384.12 310.719 413.622 362.817 415.046C388.045 415.731 414.132 416.449 440.165 418.58L441.492 418.689C462.414 420.396 484.042 422.169 507.009 426.769C525.865 430.531 545.112 435.849 565.501 441.481C577.376 444.765 589.653 448.158 601.886 451.225C615.522 454.639 630.115 458.162 644.534 460.761C688.162 468.634 723.655 471.907 756.212 471.07C795.871 470.048 831.864 462.871 866.27 449.115C901.546 435.011 934.168 415.862 966.019 390.568C992.487 369.549 1018.66 343.973 1046.03 312.383C1078.72 274.65 1106.21 233.056 1132.8 192.821C1154.79 159.524 1177.55 125.108 1202.88 93.5182C1225.47 65.3758 1251.38 40.985 1280 20.6068L1280 19.9435C1251.19 40.4521 1225.26 64.9626 1202.52 93.2355C1177.17 124.836 1154.41 159.274 1132.4 192.571C1105.83 232.784 1078.35 274.367 1045.68 312.079C986.288 380.64 930.906 422.778 866.096 448.691C787.769 480.019 710.182 472.147 644.6 460.315C630.202 457.717 615.609 454.204 601.984 450.79C589.75 447.723 577.473 444.33 565.61 441.057C545.221 435.424 525.951 430.107 507.085 426.344C484.097 421.745 462.457 419.972 441.524 418.265L440.198 418.156C414.143 416.025 388.056 415.307 362.817 414.622C310.849 413.208 268.418 383.75 230.968 357.75C210.23 343.364 190.646 329.771 171.551 322.311C157.578 316.852 144.594 309.719 130.86 302.15C105.305 288.09 78.8921 273.551 45.0407 270.202C17.7901 267.505 -13.7886 272.975 -51 286.872L-51 287.285C-18.0295 274.943 14.9411 267.646 44.9973 270.626Z" fill="url(#paint13_linear_47_827)"/>
<path d="M50.304 284.969C85.3079 286.633 114.103 298.616 141.93 310.197C155.305 315.765 169.126 321.517 183.186 325.867C205.478 332.772 228.162 345.941 252.172 359.881C289.318 381.456 331.423 405.901 379.737 410.044C409.87 412.632 434.413 415.579 456.977 419.331C459.456 419.744 461.935 420.157 464.425 420.559C483.292 423.669 502.811 426.888 523.255 431.847C539.001 435.653 554.942 440.274 571.819 445.157C586.434 449.387 601.549 453.769 616.718 457.64C629.387 460.87 644.295 464.535 658.812 467.264C701.863 475.354 736.889 478.649 769.044 477.616C808.093 476.366 843.576 468.656 877.536 454.063C912.714 438.937 945.173 418.733 976.763 392.297C1003.15 370.212 1029.1 343.516 1056.1 310.687C1087.43 272.594 1113.71 230.75 1139.12 190.288C1161.23 155.11 1184.08 118.725 1209.95 85.3842C1230.47 59.0035 1253.98 35.7545 1280 15.8656L1280 15.3219C1253.84 35.276 1230.22 58.6229 1209.62 85.1233C1183.74 118.474 1160.88 154.87 1138.78 190.059C1113.36 230.511 1087.09 272.333 1055.79 310.415C998.011 380.662 941.324 426.181 877.372 453.671C799.992 486.935 723.514 478.997 658.899 466.851C644.393 464.121 629.495 460.457 616.827 457.227C601.668 453.367 586.553 448.985 571.938 444.754C555.062 439.861 539.109 435.25 523.363 431.434C502.898 426.464 483.379 423.245 464.512 420.135C462.022 419.722 459.543 419.32 457.064 418.906C434.478 415.144 409.924 412.197 379.781 409.609C331.565 405.477 289.503 381.053 252.401 359.501C228.369 345.549 205.663 332.359 183.328 325.443C169.289 321.093 155.468 315.352 142.104 309.784C114.233 298.181 85.4166 286.198 50.3257 284.523C47.792 284.404 45.2583 284.338 42.7029 284.338C12.7554 284.338 -19.2366 292.429 -51 304.499L-51 304.967C-16.5288 291.863 18.2251 283.436 50.304 284.969Z" fill="url(#paint14_linear_47_827)"/>
<path d="M55.6105 299.301C55.8063 299.301 56.0128 299.301 56.2085 299.301C93.0394 299.301 124.803 308.816 155.533 318.016C168.365 321.865 181.642 325.834 194.985 329.01C221.496 335.317 248.236 348.203 276.541 361.85C314.09 379.944 352.911 398.659 396.668 405.031C424.832 409.131 450.061 414.057 473.799 420.081C478.747 421.321 483.727 422.539 488.729 423.767C505.095 427.78 522.015 431.934 539.512 436.947C551.016 440.231 562.521 443.776 574.701 447.527C593.143 453.204 612.206 459.076 631.551 464.089C643.904 467.286 658.497 470.94 673.101 473.81C715.565 482.129 750.134 485.435 781.886 484.195C820.327 482.705 855.298 474.474 888.823 459.043C923.914 442.884 956.199 421.625 987.539 394.048C1013.87 370.875 1039.59 343.059 1066.2 309.012C1096.25 270.55 1121.39 228.445 1145.7 187.732C1167.83 150.673 1190.71 112.352 1217.05 77.2722C1235.49 52.7617 1256.6 30.8176 1280 11.6465L1280 11.1245C1256.39 30.4153 1235.21 52.4138 1216.7 77.0112C1190.34 112.113 1167.46 150.445 1145.32 187.504C1121.02 228.206 1095.89 270.3 1065.85 308.74C1008.98 381.532 952.665 429.161 888.638 458.641C812.193 493.851 736.835 485.848 673.188 473.375C658.584 470.515 644.002 466.862 631.659 463.665C612.325 458.652 593.263 452.791 574.831 447.114C562.641 443.363 551.136 439.818 539.631 436.534C522.124 431.521 505.193 427.367 488.827 423.343C483.825 422.114 478.855 420.897 473.897 419.657C450.148 413.633 424.898 408.707 396.723 404.596C353.041 398.235 314.242 379.542 276.726 361.458C248.399 347.8 221.637 334.914 195.072 328.585C181.74 325.41 168.474 321.441 155.642 317.592C124.879 308.381 93.0829 298.855 56.1868 298.855C55.991 298.855 55.7844 298.855 55.5888 298.855C24.6626 298.942 -10.374 306.598 -51.0109 322.191L-51.0109 322.55C-15.1804 308.827 21.2916 299.399 55.6105 299.301Z" fill="url(#paint15_linear_47_827)"/>
<path d="M60.9063 313.644C101.761 311.502 138.515 318.831 174.063 325.921C184.741 328.053 195.768 330.249 206.772 332.163C239.493 337.861 272.202 350.888 306.815 364.666C340.884 378.226 376.116 392.254 413.589 400.018C440.72 405.64 465.915 412.447 490.61 420.82C502.007 424.648 513.261 428.269 525.19 432.097C535.118 435.283 545.373 438.589 555.758 442.025C560.977 443.754 566.24 445.516 571.558 447.288C595.699 455.368 620.655 463.719 646.383 470.505C663.173 474.93 675.82 477.953 687.39 480.313C729.277 488.86 763.389 492.155 794.729 490.731C832.549 489.002 867.02 480.248 900.11 463.991C935.114 446.788 967.237 424.474 998.315 395.766C1024.61 371.484 1050.12 342.548 1076.29 307.316C1105.15 268.484 1129.21 226.096 1152.46 185.101C1174.54 146.182 1197.37 105.936 1224.14 69.1382C1240.54 46.6286 1259.25 26.1851 1279.99 7.95996L1279.99 7.42715C1259.05 25.7719 1240.24 46.2698 1223.79 68.8772C1197.01 105.697 1174.17 145.953 1152.09 184.883C1128.84 225.868 1104.8 268.245 1075.95 307.055C1020.02 382.358 964.083 432.097 899.926 463.632C824.393 500.746 750.145 492.699 687.488 479.922C675.928 477.562 663.282 474.539 646.503 470.113C620.785 463.328 595.829 454.976 571.699 446.908C566.393 445.135 561.119 443.363 555.899 441.634C545.514 438.186 535.249 434.892 525.321 431.705C513.403 427.878 502.137 424.257 490.752 420.429C466.035 412.045 440.828 405.238 413.676 399.605C376.236 391.851 341.025 377.824 306.978 364.275C272.333 350.486 239.613 337.459 206.849 331.75C195.855 329.836 184.828 327.629 174.15 325.508C138.57 318.407 101.782 311.078 60.8845 313.22C27.8052 314.96 -8.92772 323.692 -51 339.808L-51 340.177C-12.9947 325.552 24.6952 315.536 60.9063 313.644Z" fill="url(#paint16_linear_47_827)"/>
<path d="M66.2129 327.976C114.929 322.953 158.654 328.172 204.946 333.707C209.48 334.251 214.015 334.795 218.571 335.327C262.698 340.493 306.315 355.108 352.497 370.592C377.834 379.085 404.041 387.872 430.531 395.027C457.281 402.258 482.433 410.947 507.444 421.592C529.986 431.129 552.735 439.861 572.025 447.147C604.507 459.402 632.105 469.167 661.226 476.975C677.527 481.346 690.01 484.402 701.689 486.87C743 495.635 776.645 498.951 807.571 497.309C844.772 495.341 878.743 486.076 911.398 468.993C975.795 435.305 1031.41 383.413 1086.4 305.674C1114.14 266.45 1137.16 223.747 1159.42 182.458C1181.38 141.702 1204.1 99.5533 1231.24 61.0587C1245.62 40.6913 1261.94 21.9333 1280 4.90436L1280 4.328C1261.74 21.4766 1245.33 40.3325 1230.89 60.8086C1203.74 99.3249 1181.01 141.484 1159.04 182.252C1136.79 223.53 1113.77 266.222 1086.04 305.423C1031.09 383.098 975.534 434.957 911.191 468.612C836.573 507.651 763.455 499.539 701.776 486.457C690.108 483.978 677.635 480.933 661.335 476.561C632.225 468.754 604.637 459 572.178 446.744C552.898 439.459 530.149 430.727 507.607 421.201C482.574 410.555 457.401 401.856 430.639 394.614C404.172 387.458 377.965 378.672 352.639 370.179C306.434 354.694 262.785 340.069 218.625 334.892C214.08 334.36 209.535 333.816 205 333.272C158.687 327.737 114.929 322.518 66.1693 327.541C27.0875 331.424 -13.0491 342.809 -51 357.174L-51 357.641C-13.0382 343.266 27.1201 331.869 66.2129 327.976Z" fill="url(#paint17_linear_47_827)"/>
<path d="M71.5086 342.32C129.664 333.577 184.437 335.469 230.359 338.481C303.15 343.244 374.583 365.579 447.462 390.025C473.832 398.876 499.68 409.75 524.266 422.343C545.199 433.043 566.143 442.83 588.282 452.236C620.209 465.807 648.917 476.007 676.07 483.412C691.598 487.653 704.277 490.828 715.989 493.406C756.723 502.388 789.911 505.715 820.403 503.867C856.994 501.648 890.454 491.872 922.685 473.963C987.31 438.078 1042.54 384.066 1096.5 303.999C1123.21 264.373 1145.24 221.333 1166.54 179.718C1188.33 137.145 1210.86 93.1158 1238.34 52.9466C1250.69 34.8845 1264.62 18.0296 1280 2.44684L1280 1.82706C1264.46 17.5294 1250.42 34.504 1237.98 52.6965C1210.49 92.8984 1187.95 136.939 1166.15 179.522C1144.84 221.127 1122.82 264.156 1096.13 303.76C1042.21 383.772 987.039 437.73 922.468 473.593C848.752 514.523 776.765 506.368 716.065 492.982C704.364 490.404 691.696 487.229 676.167 482.999C649.036 475.594 620.35 465.405 588.445 451.844C566.316 442.438 545.384 432.662 524.462 421.962C499.854 409.348 473.995 398.463 447.592 389.611C374.692 365.155 303.227 342.82 230.38 338.046C184.448 335.045 129.642 333.142 71.4433 341.895C32.9378 347.604 -7.99266 358.522 -51 374.507L-51 374.975C-7.97081 358.957 32.9922 348.039 71.5086 342.32Z" fill="url(#paint18_linear_47_827)"/>
<path d="M541.088 423.093C594.361 455.052 641.968 476.268 690.902 489.861C728.179 500.213 772.045 510.815 814.65 511C857.919 511.196 896.979 500.702 933.962 478.943C968.727 458.489 1000.35 433 1030.63 401.008C1056.93 373.235 1081.77 340.949 1106.58 302.335C1132.31 262.286 1153.4 218.887 1173.8 176.923C1195.37 132.557 1217.67 86.6674 1245.43 44.8344C1255.77 29.2408 1267.33 14.5172 1280 0.674316L1280 9.15527e-05C1267.18 13.9626 1255.52 28.8384 1245.07 44.5843C1217.3 86.4391 1194.99 132.339 1173.41 176.717C1153.01 218.669 1131.93 262.057 1106.22 302.085C1053.38 384.359 998.576 440.427 933.744 478.573C850.339 527.638 768.098 510.848 691.011 489.447C642.12 475.876 594.546 454.672 541.306 422.723C498.103 396.799 450.789 376.813 400.322 363.122C448.56 376.356 495.884 395.973 541.088 423.093Z" fill="url(#paint19_linear_47_827)"/>
<path d="M-51 392.243C18.3011 367.211 94.54 349.203 172.932 343.157C118.735 347.18 63.7227 357 9.12338 372.398C-11.1352 378.117 -31.1981 384.566 -51 391.71L-51 392.243Z" fill="url(#paint20_linear_47_827)"/>
</g>
<defs>
<linearGradient id="paint0_linear_47_827" x1="614.505" y1="70.3017" x2="614.505" y2="492.557" gradientUnits="userSpaceOnUse">
<stop stop-color="#687FE5"/>
<stop offset="1" stop-color="#EBD6FB"/>
</linearGradient>
<linearGradient id="paint1_linear_47_827" x1="614.505" y1="84.8623" x2="614.505" y2="486.17" gradientUnits="userSpaceOnUse">
<stop stop-color="#687FE5"/>
<stop offset="1" stop-color="#EBD6FB"/>
</linearGradient>
<linearGradient id="paint2_linear_47_827" x1="614.511" y1="99.7925" x2="614.511" y2="479.838" gradientUnits="userSpaceOnUse">
<stop stop-color="#687FE5"/>
<stop offset="1" stop-color="#EBD6FB"/>
</linearGradient>
<linearGradient id="paint3_linear_47_827" x1="614.511" y1="90.332" x2="614.511" y2="473.519" gradientUnits="userSpaceOnUse">
<stop stop-color="#687FE5"/>
<stop offset="1" stop-color="#EBD6FB"/>
</linearGradient>
<linearGradient id="paint4_linear_47_827" x1="614.489" y1="81.3825" x2="614.489" y2="467.247" gradientUnits="userSpaceOnUse">
<stop stop-color="#687FE5"/>
<stop offset="1" stop-color="#EBD6FB"/>
</linearGradient>
<linearGradient id="paint5_linear_47_827" x1="614.495" y1="72.8463" x2="614.495" y2="461.019" gradientUnits="userSpaceOnUse">
<stop stop-color="#687FE5"/>
<stop offset="1" stop-color="#EBD6FB"/>
</linearGradient>
<linearGradient id="paint6_linear_47_827" x1="614.5" y1="64.745" x2="614.5" y2="454.865" gradientUnits="userSpaceOnUse">
<stop stop-color="#687FE5"/>
<stop offset="1" stop-color="#EBD6FB"/>
</linearGradient>
<linearGradient id="paint7_linear_47_827" x1="614.505" y1="57.0787" x2="614.505" y2="448.797" gradientUnits="userSpaceOnUse">
<stop stop-color="#687FE5"/>
<stop offset="1" stop-color="#EBD6FB"/>
</linearGradient>
<linearGradient id="paint8_linear_47_827" x1="614.5" y1="49.8473" x2="614.5" y2="442.778" gradientUnits="userSpaceOnUse">
<stop stop-color="#687FE5"/>
<stop offset="1" stop-color="#EBD6FB"/>
</linearGradient>
<linearGradient id="paint9_linear_47_827" x1="614.5" y1="43.0075" x2="614.5" y2="444.654" gradientUnits="userSpaceOnUse">
<stop stop-color="#687FE5"/>
<stop offset="1" stop-color="#EBD6FB"/>
</linearGradient>
<linearGradient id="paint10_linear_47_827" x1="614.489" y1="36.6352" x2="614.489" y2="451.313" gradientUnits="userSpaceOnUse">
<stop stop-color="#687FE5"/>
<stop offset="1" stop-color="#EBD6FB"/>
</linearGradient>
<linearGradient id="paint11_linear_47_827" x1="614.505" y1="30.6218" x2="614.505" y2="457.92" gradientUnits="userSpaceOnUse">
<stop stop-color="#687FE5"/>
<stop offset="1" stop-color="#EBD6FB"/>
</linearGradient>
<linearGradient id="paint12_linear_47_827" x1="614.495" y1="25.0433" x2="614.495" y2="464.537" gradientUnits="userSpaceOnUse">
<stop stop-color="#687FE5"/>
<stop offset="1" stop-color="#EBD6FB"/>
</linearGradient>
<linearGradient id="paint13_linear_47_827" x1="614.5" y1="19.9434" x2="614.5" y2="471.197" gradientUnits="userSpaceOnUse">
<stop stop-color="#687FE5"/>
<stop offset="1" stop-color="#EBD6FB"/>
</linearGradient>
<linearGradient id="paint14_linear_47_827" x1="614.5" y1="15.3218" x2="614.5" y2="477.8" gradientUnits="userSpaceOnUse">
<stop stop-color="#687FE5"/>
<stop offset="1" stop-color="#EBD6FB"/>
</linearGradient>
<linearGradient id="paint15_linear_47_827" x1="614.495" y1="11.1244" x2="614.495" y2="484.448" gradientUnits="userSpaceOnUse">
<stop stop-color="#687FE5"/>
<stop offset="1" stop-color="#EBD6FB"/>
</linearGradient>
<linearGradient id="paint16_linear_47_827" x1="614.495" y1="7.4271" x2="614.495" y2="491.051" gradientUnits="userSpaceOnUse">
<stop stop-color="#687FE5"/>
<stop offset="1" stop-color="#EBD6FB"/>
</linearGradient>
<linearGradient id="paint17_linear_47_827" x1="614.5" y1="4.32798" x2="614.5" y2="497.715" gradientUnits="userSpaceOnUse">
<stop stop-color="#687FE5"/>
<stop offset="1" stop-color="#EBD6FB"/>
</linearGradient>
<linearGradient id="paint18_linear_47_827" x1="614.5" y1="1.82697" x2="614.5" y2="504.359" gradientUnits="userSpaceOnUse">
<stop stop-color="#687FE5"/>
<stop offset="1" stop-color="#EBD6FB"/>
</linearGradient>
<linearGradient id="paint19_linear_47_827" x1="840.161" y1="8.36184e-05" x2="840.161" y2="511.003" gradientUnits="userSpaceOnUse">
<stop stop-color="#687FE5"/>
<stop offset="1" stop-color="#EBD6FB"/>
</linearGradient>
<linearGradient id="paint20_linear_47_827" x1="60.966" y1="343.157" x2="60.966" y2="392.243" gradientUnits="userSpaceOnUse">
<stop stop-color="#687FE5"/>
<stop offset="1" stop-color="#EBD6FB"/>
</linearGradient>
<clipPath id="clip0_47_827">
<rect width="1331" height="511" fill="white" transform="translate(1280 511) rotate(-180)"/>
</clipPath>
</defs>
</svg>
